<?xml version="1.0" encoding="utf-8"?>
<!-- Generator: Adobe Illustrator 22.0.1, SVG Export Plug-In . SVG Version: 6.00 Build 0)  -->
<svg version="1.1" id="Ebene_1" xmlns="http://www.w3.org/2000/svg" xmlns:xlink="http://www.w3.org/1999/xlink" x="0px" y="0px" width="18px" height="18px"
	 viewBox="0 0 18 18" style="enable-background:new 0 0 18 18;" xml:space="preserve">
<style type="text/css">
	.st0{fill:#FFFFFF;}
</style>
<path class="st0" d="M16.2,2.5H1.8C0.8,2.5,0,3.3,0,4.3v9.4c0,1,0.8,1.8,1.8,1.8h14.4c1,0,1.8-0.8,1.8-1.8V4.3
	C18,3.3,17.2,2.5,16.2,2.5z M9.5,12.4H7.6V8.6L5.7,11L3.8,8.6v3.7H1.8V5.8h1.9l1.9,2.4l1.9-2.4h1.9V12.4z M13.8,12.4L11,9.2h1.9V5.8
	h1.9v3.4h1.9L13.8,12.4z"/>
</svg>
